<?xml version="1.0" encoding="UTF-8"?>
<svg version="1.1" xmlns="http://www.w3.org/2000/svg" width="48" height="48">
<path d="M0 0 C4.5862069 1.44827586 4.5862069 1.44827586 6.3125 3.75 C7.17450101 6.57109421 7.13329111 9.06759551 7 12 C7.66 12 8.32 12 9 12 C9 10.35 9 8.7 9 7 C12.58349082 8.19449694 13.44376611 9.69945918 15.21484375 12.9453125 C16.52475096 16.37322889 16.25495886 19.36683622 16 23 C16.33 23 16.66 23 17 23 C17.45647158 28.70589472 16.69917584 31.60098008 13 36 C7.58933635 39.9138993 2.46049685 39.78786547 -4 39 C-8.46403531 36.88545696 -11.0831264 34.57919805 -13 30 C-13.1875 26.1875 -13.1875 26.1875 -13 23 C-12.34 23.33 -11.68 23.66 -11 24 C-10.93683594 23.38253906 -10.87367187 22.76507812 -10.80859375 22.12890625 C-9.88227559 15.7226849 -7.93946036 11.9422296 -3.65625 7.10546875 C-1.87068516 4.83561156 -0.94747774 2.71452372 0 0 Z " fill="#FF6F00" transform="translate(21,3)"/>
<path d="M0 0 C0.99 0.33 1.98 0.66 3 1 C4.1875 3.5625 4.1875 3.5625 5 6 C5.639375 5.814375 6.27875 5.62875 6.9375 5.4375 C7.618125 5.293125 8.29875 5.14875 9 5 C10 6 10 6 10.0625 8.5625 C10.041875 9.366875 10.02125 10.17125 10 11 C10.99 11 11.98 11 13 11 C12.9375 12.8125 12.9375 12.8125 12 15 C7.23270468 17.66968538 3.53624447 18.61513827 -2 18 C-4.875 16.6875 -4.875 16.6875 -7 15 C-7.33 14.01 -7.66 13.02 -8 12 C-6.68 12 -5.36 12 -4 12 C-4.12375 10.14375 -4.12375 10.14375 -4.25 8.25 C-4.2737948 4.89493302 -4.19641677 4.24552096 -2 1.5 C-1.34 1.005 -0.68 0.51 0 0 Z " fill="#FFCC41" transform="translate(21,23)"/>
<path d="M0 0 C0.66 0 1.32 0 2 0 C3.60725635 3.21451269 3.05748185 6.43612536 3 10 C5.31 9.34 7.62 8.68 10 8 C10.027193 9.58323688 10.04648306 11.16661062 10.0625 12.75 C10.07410156 13.63171875 10.08570312 14.5134375 10.09765625 15.421875 C10.00826198 17.7818838 9.66912821 19.74498524 9 22 C9.99 22 10.98 22 12 22 C11.67 23.32 11.34 24.64 11 26 C11 25.34 11 24.68 11 24 C10.01 24 9.02 24 8 24 C7.505 21.525 7.505 21.525 7 19 C5.68 19 4.36 19 3 19 C1.25 16.5 1.25 16.5 0 14 C-1.32 14.33 -2.64 14.66 -4 15 C-4.66 18.3 -5.32 21.6 -6 25 C-6.99 25.33 -7.98 25.66 -9 26 C-9.33 26.66 -9.66 27.32 -10 28 C-10.33 26.35 -10.66 24.7 -11 23 C-10.01 23 -9.02 23 -8 23 C-8.06960938 22.28714844 -8.13921875 21.57429688 -8.2109375 20.83984375 C-8.64934296 13.08424241 -8.64934296 13.08424241 -6.734375 9.88671875 C-5.67729174 8.72957178 -4.5888188 7.60020001 -3.46875 6.50390625 C-1.57994105 4.56988645 -0.77736433 2.56530228 0 0 Z " fill="#FFB511" transform="translate(23,10)"/>
<path d="M0 0 C3 1 3 1 5 4 C5.25760279 6.69452521 5.08900053 9.28548375 5 12 C5.99 12 6.98 12 8 12 C8.33 10.35 8.66 8.7 9 7 C13.875 9.75 13.875 9.75 15 12 C15.13415472 14.6723621 15.04318541 17.32250488 15 20 C15.33 20 15.66 20 16 20 C16.36923077 26.52307692 16.36923077 26.52307692 14.5 28.9375 C13.7575 29.4634375 13.7575 29.4634375 13 30 C13 28.68 13 27.36 13 26 C12.01 26 11.02 26 10 26 C10 21.71 10 17.42 10 13 C9.67 13.33 9.34 13.66 9 14 C7.35 14 5.7 14 4 14 C3.67 10.7 3.34 7.4 3 4 C2.34 4 1.68 4 1 4 C0.773125 4.86625 0.54625 5.7325 0.3125 6.625 C-1 10 -1 10 -3.5625 12.6875 C-7.2290513 16.70992245 -6.89830465 21.80429219 -7 27 C-7.99 27 -8.98 27 -10 27 C-10.33 27.99 -10.66 28.98 -11 30 C-11.33 28.35 -11.66 26.7 -12 25 C-10.68 25 -9.36 25 -8 25 C-8.05220703 24.00419922 -8.05220703 24.00419922 -8.10546875 22.98828125 C-8.37711069 14.12757974 -8.37711069 14.12757974 -5 10 C-4.484375 9.54625 -3.96875 9.0925 -3.4375 8.625 C-1.21406941 6.11155672 -0.78592302 3.2041477 0 0 Z " fill="#FF8500" transform="translate(22,6)"/>
<path d="M0 0 C0.66 0 1.32 0 2 0 C2 1.32 2 2.64 2 4 C3.32 4 4.64 4 6 4 C6.33 6.31 6.66 8.62 7 11 C3.3558226 13.4294516 1.28758728 13.16179575 -3 13 C-4.4727491 9.17085234 -3.50018704 6.71098899 -2 3 C-1.34 2.01 -0.68 1.02 0 0 Z " fill="#FFF2CE" transform="translate(22,28)"/>
<path d="M0 0 C0.66 0 1.32 0 2 0 C2 1.32 2 2.64 2 4 C3.32 4 4.64 4 6 4 C6.33 6.31 6.66 8.62 7 11 C6.01 11.495 6.01 11.495 5 12 C4.67 10.35 4.34 8.7 4 7 C2.16299211 6.22757731 2.16299211 6.22757731 0 6 C-1.77190909 7.35444301 -1.77190909 7.35444301 -3 9 C-3.25532751 5.93606987 -3.21861333 4.36766788 -1.625 1.6875 C-0.820625 0.8521875 -0.820625 0.8521875 0 0 Z " fill="#FFEAAE" transform="translate(22,28)"/>
<path d="M0 0 C-1.11199337 2.50198509 -2.1039938 4.1039938 -4.0625 6.0625 C-6.9425032 10.42895646 -6.82025007 14.86813943 -7 20 C-7.99 20 -8.98 20 -10 20 C-10.33 20.99 -10.66 21.98 -11 23 C-11.33 21.35 -11.66 19.7 -12 18 C-10.68 18 -9.36 18 -8 18 C-8.05220703 17.00419922 -8.05220703 17.00419922 -8.10546875 15.98828125 C-8.30290873 9.54797716 -7.71404734 6.14829492 -3.4375 1.1875 C-2 0 -2 0 0 0 Z " fill="#FFA001" transform="translate(22,13)"/>
<path d="M0 0 C0.99 0.33 1.98 0.66 3 1 C3 1.66 3 2.32 3 3 C1.7934375 3.86625 1.7934375 3.86625 0.5625 4.75 C-2.52323517 7.459426 -2.72686864 8.99407334 -3 13 C-3.66 13 -4.32 13 -5 13 C-4.67 13.99 -4.34 14.98 -4 16 C-4.99 15.67 -5.98 15.34 -7 15 C-7.33 14.01 -7.66 13.02 -8 12 C-6.68 12 -5.36 12 -4 12 C-4.12375 10.14375 -4.12375 10.14375 -4.25 8.25 C-4.2737948 4.89493302 -4.19641677 4.24552096 -2 1.5 C-1.34 1.005 -0.68 0.51 0 0 Z " fill="#FFCA33" transform="translate(21,23)"/>
<path d="M0 0 C0.33 0.66 0.66 1.32 1 2 C0.57847656 2.47308594 0.15695313 2.94617188 -0.27734375 3.43359375 C-4.50429705 8.53577503 -5.96934688 12.37892639 -6 19 C-6.99 19 -7.98 19 -9 19 C-9.33 20.32 -9.66 21.64 -10 23 C-10 20.69 -10 18.38 -10 16 C-9.34 16.33 -8.68 16.66 -8 17 C-7.92523438 16.35933594 -7.85046875 15.71867187 -7.7734375 15.05859375 C-6.76603587 8.43147127 -4.85770689 4.61329397 0 0 Z " fill="#FF5900" transform="translate(18,10)"/>
<path d="M0 0 C0 0.66 0 1.32 0 2 C-0.9590625 2.804375 -0.9590625 2.804375 -1.9375 3.625 C-4.87203419 7.00416058 -4.70569771 9.58546572 -5 14 C-5.66 14 -6.32 14 -7 14 C-7.33 12.68 -7.66 11.36 -8 10 C-7.34 10 -6.68 10 -6 10 C-6.0825 9.0925 -6.165 8.185 -6.25 7.25 C-6 4 -6 4 -4.125 1.625 C-2 0 -2 0 0 0 Z " fill="#FFDB71" transform="translate(24,26)"/>
</svg>
